<?xml version="1.0" encoding="UTF-8"?>
<svg version="1.1" viewBox="0 0 800 800" width="1280" height="1280" xmlns="http://www.w3.org/2000/svg">
<path transform="translate(375,158)" d="m0 0h54l30 2 44 5 36 6 30 7 15 5 9 6 5 6 2 6v77l-10 4-14 7-8 7-7 10-5 12-1 5-1 147-1 15-5 3-8 3h-6l-12-5-12-3-9-1h-17l-41 6-20 2h-50l-34-4-19-3-15-1-17 2-17 5-7 3-5-1-12-5-1-1-1-151-1-13-4-12-7-11-8-8-16-8-9-3-1-2v-75l2-6 4-6 5-4 10-5 19-5 34-7 40-6 28-3z"/>
<path transform="translate(182,320)" d="m0 0h11l8 3 8 8 3 7 1 171 10 5 27 10 22 7 7-1 11-5 8-2h16l36 5 23 2h52l31-3 35-5 13 1 12 4 7 4 7-1 30-10 25-10h2v-169l4-10 5-6 10-5h11l10 4 7 8 3 10v198l-2 15-6 12-7 7-16 8-26 10-39 13-8 10-9 8-12 6-22 5-37 5-23 2-20 1h-26l-30-2-28-3-30-5-10-3-11-6-10-9-7-9-25-8-31-11-16-7-9-6-7-7-5-9-2-9v-209l3-7 7-8 5-3z"/>
</svg>
